<svg width="64" height="64" viewBox="0 0 64 64" fill="none" xmlns="http://www.w3.org/2000/svg">
<path d="M57 12H7C6.20462 12.0009 5.44206 12.3172 4.87964 12.8796C4.31722 13.4421 4.00087 14.2046 4 15V49C4.00087 49.7954 4.31721 50.5579 4.87964 51.1204C5.44206 51.6828 6.20462 51.9991 7 52H57C57.7954 51.9991 58.5579 51.6828 59.1204 51.1204C59.6828 50.5579 59.9991 49.7954 60 49V15C59.9991 14.2046 59.6828 13.4421 59.1204 12.8796C58.5579 12.3172 57.7954 12.0009 57 12ZM6 15C6.00034 14.7349 6.1058 14.4807 6.29326 14.2933C6.48073 14.1058 6.73489 14.0003 7 14H57C57.2651 14.0003 57.5193 14.1058 57.7067 14.2933C57.8942 14.4807 57.9997 14.7349 58 15V18H6V15ZM58 49C57.9997 49.2651 57.8942 49.5193 57.7067 49.7067C57.5193 49.8942 57.2651 49.9997 57 50H7C6.73489 49.9997 6.48073 49.8942 6.29326 49.7067C6.1058 49.5193 6.00033 49.2651 6 49V20H58V49Z" fill="#03435F"/>
<path d="M55.0098 15H55C54.7339 15.0013 54.4792 15.1081 54.2917 15.2969C54.1043 15.4858 53.9993 15.7413 54 16.0073C54.0006 16.2734 54.1068 16.5284 54.2952 16.7163C54.4836 16.9043 54.7388 17.0098 55.0049 17.0098C55.271 17.0098 55.5262 16.9043 55.7146 16.7163C55.903 16.5284 56.0092 16.2734 56.0098 16.0073C56.0105 15.7413 55.9055 15.4858 55.7181 15.2969C55.5306 15.1081 55.2759 15.0013 55.0098 15ZM51 15H50.9902C50.7241 15.0013 50.4694 15.1081 50.2819 15.2969C50.0945 15.4858 49.9895 15.7413 49.9902 16.0073C49.9908 16.2734 50.097 16.5284 50.2854 16.7163C50.4738 16.9043 50.729 17.0098 50.9951 17.0098C51.2612 17.0098 51.5164 16.9043 51.7048 16.7163C51.8932 16.5284 51.9994 16.2734 52 16.0073C52.0007 15.7413 51.8957 15.4858 51.7083 15.2969C51.5208 15.1081 51.2661 15.0013 51 15ZM47.0049 15H46.9951C46.729 15.0013 46.4743 15.1081 46.2868 15.2969C46.0994 15.4858 45.9944 15.7413 45.9951 16.0073C45.9957 16.2734 46.1019 16.5284 46.2903 16.7163C46.4787 16.9043 46.7339 17.0098 47 17.0098C47.2661 17.0098 47.5213 16.9043 47.7097 16.7163C47.8981 16.5284 48.0043 16.2734 48.0049 16.0073C48.0056 15.7413 47.9006 15.4858 47.7132 15.2969C47.5257 15.1081 47.271 15.0013 47.0049 15ZM9 24H16C16.2652 24 16.5196 23.8946 16.7071 23.7071C16.8946 23.5196 17 23.2652 17 23C17 22.7348 16.8946 22.4804 16.7071 22.2929C16.5196 22.1054 16.2652 22 16 22H9C8.73478 22 8.48043 22.1054 8.29289 22.2929C8.10536 22.4804 8 22.7348 8 23C8 23.2652 8.10536 23.5196 8.29289 23.7071C8.48043 23.8946 8.73478 24 9 24ZM9 28H16C16.2652 28 16.5196 27.8946 16.7071 27.7071C16.8946 27.5196 17 27.2652 17 27C17 26.7348 16.8946 26.4804 16.7071 26.2929C16.5196 26.1054 16.2652 26 16 26H9C8.73478 26 8.48043 26.1054 8.29289 26.2929C8.10536 26.4804 8 26.7348 8 27C8 27.2652 8.10536 27.5196 8.29289 27.7071C8.48043 27.8946 8.73478 28 9 28ZM9 32H16C16.2652 32 16.5196 31.8946 16.7071 31.7071C16.8946 31.5196 17 31.2652 17 31C17 30.7348 16.8946 30.4804 16.7071 30.2929C16.5196 30.1054 16.2652 30 16 30H9C8.73478 30 8.48043 30.1054 8.29289 30.2929C8.10536 30.4804 8 30.7348 8 31C8 31.2652 8.10536 31.5196 8.29289 31.7071C8.48043 31.8946 8.73478 32 9 32ZM9 36H16C16.2652 36 16.5196 35.8946 16.7071 35.7071C16.8946 35.5196 17 35.2652 17 35C17 34.7348 16.8946 34.4804 16.7071 34.2929C16.5196 34.1054 16.2652 34 16 34H9C8.73478 34 8.48043 34.1054 8.29289 34.2929C8.10536 34.4804 8 34.7348 8 35C8 35.2652 8.10536 35.5196 8.29289 35.7071C8.48043 35.8946 8.73478 36 9 36ZM39 34H47.8188C47.9655 34.0001 48.1103 33.9679 48.2431 33.9057C48.376 33.8435 48.4935 33.7529 48.5873 33.6402C48.6812 33.5275 48.7491 33.3956 48.7862 33.2537C48.8233 33.1118 48.8288 32.9635 48.8022 32.8193C48.3816 30.5636 47.3208 28.4767 45.7465 26.8074L46.6255 25H51C51.2652 25 51.5196 24.8946 51.7071 24.7071C51.8946 24.5196 52 24.2652 52 24C52 23.7348 51.8946 23.4804 51.7071 23.2929C51.5196 23.1054 51.2652 23 51 23H46C45.8124 23 45.6286 23.0527 45.4696 23.1522C45.3105 23.2516 45.1827 23.3938 45.1006 23.5625L44.2007 25.4124C42.7224 24.2938 41.0035 23.5355 39.1807 23.1978C39.0365 23.1712 38.8882 23.1767 38.7463 23.2138C38.6044 23.2509 38.4725 23.3188 38.3598 23.4127C38.2471 23.5066 38.1565 23.6241 38.0943 23.7569C38.0321 23.8897 37.9999 24.0346 38 24.1812V33C38 33.2652 38.1054 33.5195 38.2929 33.7071C38.4805 33.8946 38.7348 34 39 34ZM40 25.458C41.5341 25.9458 42.9288 26.7945 44.0672 27.9328C45.2055 29.0712 46.0542 30.4659 46.542 32H40V25.458ZM55 25H55.0098C55.2759 24.9987 55.5306 24.8919 55.7181 24.7031C55.9055 24.5142 56.0105 24.2587 56.0098 23.9927C56.0092 23.7266 55.903 23.4716 55.7146 23.2837C55.5262 23.0957 55.271 22.9902 55.0049 22.9902C54.7388 22.9902 54.4836 23.0957 54.2952 23.2837C54.1068 23.4716 54.0006 23.7266 54 23.9927C53.9993 24.2587 54.1043 24.5142 54.2917 24.7031C54.4792 24.8919 54.7339 24.9987 55 25Z" fill="#03435F"/>
<path d="M55 26H52C51.7348 26 51.4804 26.1053 51.2929 26.2929C51.1054 26.4804 51 26.7348 51 27C51 27.2652 51.1054 27.5196 51.2929 27.7071C51.4804 27.8946 51.7348 28 52 28H55C55.2652 28 55.5196 27.8946 55.7071 27.7071C55.8946 27.5196 56 27.2652 56 27C56 26.7348 55.8946 26.4804 55.7071 26.2929C55.5196 26.1053 55.2652 26 55 26ZM27.5703 42.5625L26.3843 45H22.0098C21.7446 45 21.4902 45.1053 21.3027 45.2929C21.1152 45.4804 21.0098 45.7348 21.0098 46C21.0098 46.2652 21.1152 46.5196 21.3027 46.7071C21.4902 46.8946 21.7446 47 22.0098 47H27.0098C27.1974 47 27.3812 46.9473 27.5402 46.8478C27.6993 46.7484 27.8271 46.6062 27.9092 46.4375L29.0936 44.0038C30.6842 45.407 32.6189 46.3628 34.6999 46.7734C36.7809 47.184 38.9336 47.0347 40.938 46.3408C42.9424 45.6469 44.7267 44.4332 46.1084 42.8238C47.4901 41.2144 48.4197 39.267 48.8022 37.1807C48.8288 37.0365 48.8233 36.8882 48.7862 36.7463C48.7491 36.6044 48.6812 36.4725 48.5873 36.3598C48.4935 36.2471 48.376 36.1565 48.2431 36.0943C48.1103 36.0321 47.9654 35.9999 47.8188 36H36V24.1812C36.0001 24.0345 35.9679 23.8897 35.9057 23.7569C35.8435 23.624 35.7529 23.5065 35.6402 23.4127C35.5275 23.3188 35.3956 23.2509 35.2537 23.2138C35.1118 23.1767 34.9635 23.1712 34.8193 23.1978C32.7798 23.5725 30.8724 24.47 29.2835 25.8025C27.6947 27.135 26.4787 28.857 25.7546 30.8001C25.0304 32.7432 24.8228 34.841 25.152 36.8883C25.4813 38.9357 26.3361 40.8626 27.6329 42.4807C27.6105 42.5068 27.5896 42.5341 27.5703 42.5625ZM34 25.4565V37C34 37.2652 34.1054 37.5195 34.2929 37.7071C34.4804 37.8946 34.7348 38 35 38H46.5435C46.0274 39.64 45.0973 41.1193 43.843 42.2951C42.5887 43.4709 41.0524 44.3036 39.3825 44.7127C37.7127 45.1218 35.9655 45.0936 34.3097 44.6307C32.6539 44.1679 31.1453 43.2861 29.9296 42.0704C28.7139 40.8547 27.8321 39.3461 27.3692 37.6903C26.9064 36.0345 26.8782 34.2873 27.2873 32.6175C27.6964 30.9476 28.5291 29.4113 29.7049 28.157C30.8807 26.9026 32.36 25.9726 34 25.4565ZM18.0098 47C18.275 47 18.5294 46.8946 18.7169 46.7071C18.9044 46.5196 19.0098 46.2652 19.0098 46C19.0098 45.7348 18.9044 45.4804 18.7169 45.2929C18.5294 45.1053 18.275 45 18.0098 45H18C17.7348 45.0013 17.4809 45.1079 17.2943 45.2963C17.1077 45.4848 17.0036 45.7397 17.0049 46.0049C17.0062 46.2701 17.1128 46.5239 17.3013 46.7106C17.4897 46.8972 17.7446 47.0013 18.0098 47Z" fill="#03435F"/>
<path d="M18.0098 44H21.0098C21.275 44 21.5294 43.8946 21.7169 43.7071C21.9044 43.5196 22.0098 43.2652 22.0098 43C22.0098 42.7348 21.9044 42.4804 21.7169 42.2929C21.5294 42.1054 21.275 42 21.0098 42H18.0098C17.7446 42 17.4902 42.1054 17.3027 42.2929C17.1152 42.4804 17.0098 42.7348 17.0098 43C17.0098 43.2652 17.1152 43.5196 17.3027 43.7071C17.4902 43.8946 17.7446 44 18.0098 44Z" fill="#03435F"/>
</svg>
