<svg width="18" height="18" viewBox="0 0 18 18" fill="none" xmlns="http://www.w3.org/2000/svg">
<path d="M9 0C7.21997 0 5.47991 0.527841 3.99987 1.51677C2.51983 2.50571 1.36628 3.91131 0.685088 5.55585C0.00389957 7.20038 -0.17433 9.00998 0.172937 10.7558C0.520204 12.5016 1.37737 14.1053 2.63604 15.364C3.89472 16.6226 5.49836 17.4798 7.24419 17.8271C8.99002 18.1743 10.7996 17.9961 12.4442 17.3149C14.0887 16.6337 15.4943 15.4802 16.4832 14.0001C17.4722 12.5201 18 10.78 18 9C18 6.61305 17.0518 4.32387 15.364 2.63604C13.6761 0.948212 11.387 0 9 0ZM9 16.5C7.51664 16.5 6.0666 16.0601 4.83323 15.236C3.59986 14.4119 2.63856 13.2406 2.07091 11.8701C1.50325 10.4997 1.35473 8.99168 1.64411 7.53682C1.9335 6.08197 2.64781 4.74559 3.6967 3.6967C4.7456 2.64781 6.08197 1.9335 7.53683 1.64411C8.99168 1.35472 10.4997 1.50325 11.8701 2.0709C13.2406 2.63856 14.4119 3.59985 15.236 4.83322C16.0601 6.06659 16.5 7.51664 16.5 9C16.5 10.9891 15.7098 12.8968 14.3033 14.3033C12.8968 15.7098 10.9891 16.5 9 16.5Z" fill="#21334F"/>
<path d="M9.75 4.5H8.25C7.65326 4.5 7.08097 4.73705 6.65901 5.15901C6.23705 5.58097 6 6.15326 6 6.75C6 6.94891 6.07902 7.13968 6.21967 7.28033C6.36032 7.42098 6.55109 7.5 6.75 7.5C6.94891 7.5 7.13968 7.42098 7.28033 7.28033C7.42098 7.13968 7.5 6.94891 7.5 6.75C7.5 6.55109 7.57902 6.36032 7.71967 6.21967C7.86032 6.07902 8.05109 6 8.25 6H9.75C9.94891 6 10.1397 6.07902 10.2803 6.21967C10.421 6.36032 10.5 6.55109 10.5 6.75C10.5 6.94891 10.421 7.13968 10.2803 7.28033C10.1397 7.42098 9.94891 7.5 9.75 7.5C9.35218 7.5 8.97064 7.65804 8.68934 7.93934C8.40804 8.22064 8.25 8.60218 8.25 9V9.75C8.25 9.94891 8.32902 10.1397 8.46967 10.2803C8.61032 10.421 8.80109 10.5 9 10.5C9.19891 10.5 9.38968 10.421 9.53033 10.2803C9.67098 10.1397 9.75 9.94891 9.75 9.75V9C10.3467 9 10.919 8.76295 11.341 8.34099C11.7629 7.91903 12 7.34674 12 6.75C12 6.15326 11.7629 5.58097 11.341 5.15901C10.919 4.73705 10.3467 4.5 9.75 4.5ZM9 12C8.80109 12 8.61032 12.079 8.46967 12.2197C8.32902 12.3603 8.25 12.5511 8.25 12.75C8.25 12.9489 8.32902 13.1397 8.46967 13.2803C8.61032 13.421 8.80109 13.5 9 13.5C9.19891 13.5 9.38968 13.421 9.53033 13.2803C9.67098 13.1397 9.75 12.9489 9.75 12.75C9.75 12.5511 9.67098 12.3603 9.53033 12.2197C9.38968 12.079 9.19891 12 9 12Z" fill="#21334F"/>
</svg>
