<svg width="64" height="64" viewBox="0 0 64 64" fill="none" xmlns="http://www.w3.org/2000/svg">
<path d="M49.1 6H22.9C20.16 6 18 8.8 18 12.36V24C18 24.5304 18.2107 25.0391 18.5858 25.4142C18.9609 25.7893 19.4696 26 20 26C20.5304 26 21.0391 25.7893 21.4142 25.4142C21.7893 25.0391 22 24.5304 22 24V12.36C21.9497 11.9233 22.0052 11.4809 22.1618 11.0701C22.3185 10.6594 22.5717 10.2923 22.9 10H49.08C49.3 10 50 10.86 50 12.36V51.64C50.0503 52.0767 49.9948 52.5191 49.8382 52.9299C49.6815 53.3406 49.4283 53.7077 49.1 54H22.92C22.7 54 22 53.14 22 51.64V40C22 39.4696 21.7893 38.9609 21.4142 38.5858C21.0391 38.2107 20.5304 38 20 38C19.4696 38 18.9609 38.2107 18.5858 38.5858C18.2107 38.9609 18 39.4696 18 40V51.64C18 55.2 20.16 58 22.9 58H49.1C51.84 58 54 55.2 54 51.64V12.36C54 8.8 51.84 6 49.1 6Z" fill="#03435F"/>
<path d="M32.58 36.58C32.3925 36.7659 32.2438 36.9871 32.1422 37.2309C32.0407 37.4746 31.9884 37.736 31.9884 38C31.9884 38.264 32.0407 38.5254 32.1422 38.7692C32.2438 39.0129 32.3925 39.2341 32.58 39.42C32.7659 39.6075 32.9871 39.7563 33.2308 39.8578C33.4746 39.9593 33.736 40.0116 34 40.0116C34.264 40.0116 34.5254 39.9593 34.7692 39.8578C35.0129 39.7563 35.2341 39.6075 35.42 39.42L41.42 33.42C41.6021 33.2298 41.7448 33.0055 41.84 32.76C42.04 32.2731 42.04 31.7269 41.84 31.24C41.7448 30.9945 41.6021 30.7702 41.42 30.58L35.42 24.58C35.0434 24.2034 34.5326 23.9918 34 23.9918C33.4674 23.9918 32.9566 24.2034 32.58 24.58C32.2034 24.9566 31.9918 25.4674 31.9918 26C31.9918 26.5326 32.2034 27.0434 32.58 27.42L35.18 30H12C11.4696 30 10.9609 30.2107 10.5858 30.5858C10.2107 30.9609 10 31.4696 10 32C10 32.5304 10.2107 33.0391 10.5858 33.4142C10.9609 33.7893 11.4696 34 12 34H35.18L32.58 36.58Z" fill="#03435F"/>
</svg>
