<svg width="24" height="24" viewBox="0 0 24 24" fill="none" xmlns="http://www.w3.org/2000/svg">
<path d="M12 8C11.2089 8 10.4355 8.2346 9.77772 8.67412C9.11992 9.11365 8.60723 9.73836 8.30448 10.4693C8.00173 11.2002 7.92252 12.0044 8.07686 12.7804C8.2312 13.5563 8.61216 14.269 9.17157 14.8284C9.73098 15.3878 10.4437 15.7688 11.2196 15.9231C11.9956 16.0775 12.7998 15.9983 13.5307 15.6955C14.2616 15.3928 14.8864 14.8801 15.3259 14.2223C15.7654 13.5645 16 12.7911 16 12C16 10.9391 15.5786 9.92172 14.8284 9.17157C14.0783 8.42143 13.0609 8 12 8ZM12 14C11.6044 14 11.2178 13.8827 10.8889 13.6629C10.56 13.4432 10.3036 13.1308 10.1522 12.7654C10.0009 12.3999 9.96126 11.9978 10.0384 11.6098C10.1156 11.2219 10.3061 10.8655 10.5858 10.5858C10.8655 10.3061 11.2219 10.1156 11.6098 10.0384C11.9978 9.96126 12.3999 10.0009 12.7654 10.1522C13.1308 10.3036 13.4432 10.56 13.6629 10.8889C13.8827 11.2178 14 11.6044 14 12C14 12.5304 13.7893 13.0391 13.4142 13.4142C13.0391 13.7893 12.5304 14 12 14ZM20.7 9C20.6371 9.00004 20.5756 8.98092 20.5238 8.9452C20.472 8.90947 20.4323 8.85883 20.41 8.8C20.35 8.64 20.29 8.48 20.22 8.32C20.1968 8.26747 20.1892 8.20939 20.1981 8.15267C20.207 8.09595 20.2319 8.04296 20.27 8C20.4859 7.78697 20.6573 7.53319 20.7743 7.25337C20.8913 6.97356 20.9515 6.67329 20.9515 6.37C20.9515 6.06671 20.8913 5.76644 20.7743 5.48663C20.6573 5.20681 20.4859 4.95303 20.27 4.74L19.27 3.74C18.8321 3.31836 18.2479 3.08281 17.64 3.08281C17.0321 3.08281 16.4479 3.31836 16.01 3.74C15.96 3.7744 15.9007 3.79282 15.84 3.79282C15.7793 3.79282 15.72 3.7744 15.67 3.74L15.19 3.55C15.1389 3.52902 15.0944 3.49479 15.061 3.45084C15.0276 3.40689 15.0065 3.35481 15 3.3C15 2.69 14.7577 2.10499 14.3263 1.67365C13.895 1.24232 13.31 1 12.7 1H11.3C10.69 1 10.105 1.24232 9.67365 1.67365C9.24232 2.10499 9 2.69 9 3.3C9.00004 3.36292 8.98092 3.42437 8.9452 3.47617C8.90947 3.52797 8.85883 3.56767 8.8 3.59L8.32 3.78C8.26998 3.8144 8.2107 3.83282 8.15 3.83282C8.08929 3.83282 8.03002 3.8144 7.98 3.78C7.54212 3.35836 6.95788 3.12281 6.35 3.12281C5.74212 3.12281 5.15788 3.35836 4.72 3.78L3.72 4.78C3.29752 5.21 3.06162 5.78924 3.06349 6.39205C3.06536 6.99487 3.30485 7.57264 3.73 8C3.76663 8.051 3.78633 8.11221 3.78633 8.175C3.78633 8.23779 3.76663 8.299 3.73 8.35C3.66 8.51 3.6 8.67 3.54 8.82C3.5185 8.86786 3.4852 8.90948 3.44322 8.94097C3.40125 8.97245 3.35197 8.99276 3.3 9C2.69 9 2.10499 9.24232 1.67365 9.67365C1.24232 10.105 1 10.69 1 11.3V12.7C1 13.31 1.24232 13.895 1.67365 14.3263C2.10499 14.7577 2.69 15 3.3 15C3.36292 15 3.42437 15.0191 3.47617 15.0548C3.52797 15.0905 3.56767 15.1412 3.59 15.2C3.65 15.36 3.71 15.52 3.78 15.68C3.81663 15.731 3.83633 15.7922 3.83633 15.855C3.83633 15.9178 3.81663 15.979 3.78 16.03C3.56412 16.243 3.39271 16.4968 3.27572 16.7766C3.15872 17.0564 3.09848 17.3567 3.09848 17.66C3.09848 17.9633 3.15872 18.2636 3.27572 18.5434C3.39271 18.8232 3.56412 19.077 3.78 19.29L4.78 20.29C5.21788 20.7116 5.80212 20.9472 6.41 20.9472C7.01788 20.9472 7.60212 20.7116 8.04 20.29C8.09002 20.2556 8.14929 20.2372 8.21 20.2372C8.27071 20.2372 8.32998 20.2556 8.38 20.29L8.86 20.48C8.91883 20.5023 8.96947 20.542 9.0052 20.5938C9.04092 20.6456 9.06004 20.7071 9.06 20.77C9.0777 21.3575 9.31968 21.916 9.73625 22.3307C10.1528 22.7455 10.7124 22.9849 11.3 23H12.7C13.31 23 13.895 22.7577 14.3263 22.3263C14.7577 21.895 15 21.31 15 20.7C15 20.6371 15.0191 20.5756 15.0548 20.5238C15.0905 20.472 15.1412 20.4323 15.2 20.41L15.68 20.22C15.73 20.1856 15.7893 20.1672 15.85 20.1672C15.9107 20.1672 15.97 20.1856 16.02 20.22C16.4579 20.6416 17.0421 20.8772 17.65 20.8772C18.2579 20.8772 18.8421 20.6416 19.28 20.22L20.28 19.22C20.4959 19.007 20.6673 18.7532 20.7843 18.4734C20.9013 18.1936 20.9615 17.8933 20.9615 17.59C20.9615 17.2867 20.9013 16.9864 20.7843 16.7066C20.6673 16.4268 20.4959 16.173 20.28 15.96C20.2357 15.9145 20.2069 15.856 20.198 15.7931C20.189 15.7302 20.2002 15.6661 20.23 15.61C20.3 15.45 20.36 15.29 20.42 15.14C20.4501 15.0939 20.4918 15.0567 20.541 15.0321C20.5902 15.0075 20.6451 14.9964 20.7 15C21.31 15 21.895 14.7577 22.3263 14.3263C22.7577 13.895 23 13.31 23 12.7V11.3C23 10.69 22.7577 10.105 22.3263 9.67365C21.895 9.24232 21.31 9 20.7 9ZM21 12.7C20.9975 12.7788 20.9651 12.8536 20.9094 12.9094C20.8536 12.9651 20.7788 12.9975 20.7 13C20.231 12.9985 19.7727 13.1404 19.3867 13.4067C19.0006 13.6731 18.7052 14.051 18.54 14.49C18.5004 14.6173 18.4502 14.7411 18.39 14.86C18.1924 15.2876 18.1316 15.7658 18.2157 16.2293C18.2998 16.6928 18.5248 17.119 18.86 17.45C18.9165 17.5054 18.9489 17.5809 18.95 17.66C18.9484 17.742 18.9163 17.8204 18.86 17.88L17.86 18.88C17.8359 18.9131 17.8043 18.94 17.7678 18.9585C17.7313 18.977 17.6909 18.9867 17.65 18.9867C17.6091 18.9867 17.5687 18.977 17.5322 18.9585C17.4957 18.94 17.4641 18.9131 17.44 18.88C17.1087 18.5485 16.6837 18.3267 16.2223 18.2445C15.7609 18.1622 15.2854 18.2235 14.86 18.42C14.7411 18.4802 14.6173 18.5304 14.49 18.57C14.055 18.7322 13.6796 19.0227 13.4135 19.4031C13.1474 19.7835 13.0032 20.2358 13 20.7C12.9975 20.7788 12.9651 20.8536 12.9094 20.9094C12.8536 20.9651 12.7788 20.9975 12.7 21H11.3C11.2212 20.9975 11.1464 20.9651 11.0906 20.9094C11.0349 20.8536 11.0025 20.7788 11 20.7C11.0029 20.2307 10.8616 19.7718 10.5951 19.3854C10.3286 18.9991 9.94978 18.704 9.51 18.54C9.3827 18.5004 9.25893 18.4502 9.14 18.39C8.82621 18.2472 8.48473 18.1755 8.14 18.18C7.83912 18.1793 7.54107 18.2381 7.26303 18.3531C6.98499 18.4681 6.73246 18.637 6.52 18.85C6.36 19.01 6.24 18.97 6.1 18.85L5.1 17.85C5.07097 17.8212 5.04794 17.7869 5.03222 17.7492C5.0165 17.7114 5.0084 17.6709 5.0084 17.63C5.0084 17.5891 5.0165 17.5486 5.03222 17.5108C5.04794 17.4731 5.07097 17.4388 5.1 17.41C5.43437 17.0806 5.65894 16.6561 5.74306 16.1943C5.82717 15.7326 5.76674 15.2561 5.57 14.83C5.50977 14.7111 5.45959 14.5873 5.42 14.46C5.2525 14.033 4.96114 13.6658 4.58337 13.4057C4.2056 13.1455 3.75867 13.0042 3.3 13C3.22123 12.9975 3.14637 12.9651 3.09064 12.9094C3.03491 12.8536 3.0025 12.7788 3 12.7V11.3C3.0025 11.2212 3.03491 11.1464 3.09064 11.0906C3.14637 11.0349 3.22123 11.0025 3.3 11C3.76901 11.0015 4.22727 10.8596 4.61334 10.5933C4.9994 10.3269 5.29483 9.94897 5.46 9.51C5.49959 9.3827 5.54977 9.25893 5.61 9.14C5.80756 8.71237 5.86843 8.23421 5.78432 7.77072C5.70021 7.30723 5.47522 6.88095 5.14 6.55C5.08348 6.49461 5.05113 6.41913 5.05 6.34C5.05163 6.25803 5.08371 6.17961 5.14 6.12L6.14 5.12C6.16413 5.08694 6.19573 5.06004 6.23222 5.0415C6.26871 5.02296 6.30907 5.0133 6.35 5.0133C6.39093 5.0133 6.43129 5.02296 6.46778 5.0415C6.50427 5.06004 6.53587 5.08694 6.56 5.12C6.8913 5.45146 7.31633 5.67329 7.77769 5.75555C8.23906 5.83781 8.71456 5.77653 9.14 5.58C9.25893 5.51977 9.3827 5.46959 9.51 5.43C9.94498 5.26783 10.3204 4.9773 10.5865 4.5969C10.8526 4.21651 10.9968 3.76422 11 3.3C11.0025 3.22123 11.0349 3.14637 11.0906 3.09064C11.1464 3.03491 11.2212 3.0025 11.3 3H12.7C12.7788 3.0025 12.8536 3.03491 12.9094 3.09064C12.9651 3.14637 12.9975 3.22123 13 3.3C12.9971 3.76934 13.1384 4.22824 13.4049 4.61458C13.6714 5.00092 14.0502 5.29605 14.49 5.46C14.6173 5.49959 14.7411 5.54977 14.86 5.61C15.2854 5.80653 15.7609 5.86781 16.2223 5.78555C16.6837 5.70329 17.1087 5.48146 17.44 5.15C17.4641 5.11694 17.4957 5.09004 17.5322 5.0715C17.5687 5.05296 17.6091 5.0433 17.65 5.0433C17.6909 5.0433 17.7313 5.05296 17.7678 5.0715C17.8043 5.09004 17.8359 5.11694 17.86 5.15L18.86 6.15C18.889 6.17881 18.9121 6.21309 18.9278 6.25085C18.9435 6.2886 18.9516 6.3291 18.9516 6.37C18.9516 6.4109 18.9435 6.4514 18.9278 6.48915C18.9121 6.52691 18.889 6.56119 18.86 6.59C18.5256 6.91937 18.3011 7.34391 18.2169 7.80566C18.1328 8.26741 18.1933 8.74387 18.39 9.17C18.4502 9.28893 18.5004 9.4127 18.54 9.54C18.71 9.97336 19.0075 10.3449 19.3932 10.6056C19.7788 10.8663 20.2345 11.0038 20.7 11C20.7788 11.0025 20.8536 11.0349 20.9094 11.0906C20.9651 11.1464 20.9975 11.2212 21 11.3V12.7Z" fill="#21334F"/>
</svg>
