<svg width="64" height="55" viewBox="0 0 64 55" fill="none" xmlns="http://www.w3.org/2000/svg">
<g clip-path="url(#clip0_5_2455)">
<path d="M8.47066 27.2941C8.47066 40.2889 19.0053 50.8235 32.0001 50.8235H32.9412C33.457 50.8235 33.8824 51.2489 33.8824 51.7741V53.6376C33.8842 53.7617 33.8613 53.8849 33.8151 54C33.7689 54.1151 33.7002 54.2199 33.6132 54.3084C33.5262 54.3968 33.4225 54.4671 33.3081 54.5151C33.1937 54.5631 33.071 54.588 32.9469 54.5882H32.0001C16.9262 54.5882 4.70596 42.368 4.70596 27.2941V26.1911L2.93655 27.9605C2.84837 28.0479 2.74382 28.117 2.62888 28.1639C2.51395 28.2108 2.39089 28.2346 2.26675 28.2339C2.14261 28.2332 2.01982 28.2081 1.90543 28.1598C1.79103 28.1116 1.68726 28.0413 1.60008 27.9529L0.282428 26.6353C-0.0940425 26.2588 -0.0902778 25.6631 0.280546 25.2932L5.25749 20.3162C5.61048 19.9633 6.08918 19.7651 6.58831 19.7651C7.08744 19.7651 7.56614 19.9633 7.91913 20.3162L12.8961 25.2932C13.2631 25.6602 13.266 26.2635 12.8942 26.6353L11.5765 27.9529C11.2001 28.3294 10.6071 28.3275 10.2401 27.9605L8.47066 26.1911V27.2941ZM55.5295 27.2941C55.5295 14.2993 44.9949 3.76471 32.0001 3.76471H31.0636C30.939 3.76458 30.8157 3.73988 30.7007 3.692C30.5857 3.64413 30.4812 3.57403 30.3934 3.48572C30.3055 3.39742 30.2359 3.29264 30.1886 3.17739C30.1413 3.06214 30.1172 2.93869 30.1177 2.81412V0.950588C30.1177 0.416941 30.5384 0 31.058 0H32.0001C47.074 0 59.2942 12.2202 59.2942 27.2941V28.3972L61.0636 26.6278C61.1518 26.5404 61.2563 26.4712 61.3713 26.4243C61.4862 26.3774 61.6093 26.3536 61.7334 26.3543C61.8575 26.355 61.9803 26.3802 62.0947 26.4284C62.2091 26.4766 62.3129 26.5469 62.4001 26.6353L63.7177 27.9529C64.0942 28.3294 64.0904 28.9252 63.7196 29.2951L58.7427 34.272C58.3897 34.6249 57.911 34.8231 57.4118 34.8231C56.9127 34.8231 56.434 34.6249 56.081 34.272L51.1041 29.2951C50.9272 29.1164 50.8281 28.875 50.8285 28.6236C50.8288 28.3722 50.9286 28.1311 51.106 27.9529L52.4236 26.6353C52.5105 26.5465 52.6142 26.4758 52.7286 26.4273C52.8431 26.3788 52.966 26.3534 53.0903 26.3527C53.2146 26.352 53.3377 26.376 53.4527 26.4232C53.5677 26.4704 53.6721 26.5399 53.7601 26.6278L55.5295 28.3972V27.2941ZM20.706 27.2941C20.706 21.056 25.762 16 32.0001 16C38.2382 16 43.2942 21.056 43.2942 27.2941C43.2942 33.5322 38.2382 38.5882 32.0001 38.5882C25.762 38.5882 20.706 33.5322 20.706 27.2941Z" fill="#03435F"/>
</g>
<defs>
<clipPath id="clip0_5_2455">
<rect width="64" height="54.5882" fill="white"/>
</clipPath>
</defs>
</svg>
