<svg width="24" height="24" viewBox="0 0 24 24" fill="none" xmlns="http://www.w3.org/2000/svg">
<path d="M16.5 7.5C16.5 6.60999 16.2361 5.73996 15.7416 4.99994C15.2471 4.25991 14.5443 3.68314 13.7221 3.34254C12.8998 3.00195 11.995 2.91283 11.1221 3.08647C10.2492 3.2601 9.44736 3.68869 8.81802 4.31802C8.18868 4.94736 7.7601 5.74918 7.58647 6.6221C7.41283 7.49501 7.50195 8.39981 7.84254 9.22208C8.18314 10.0443 8.75991 10.7471 9.49993 11.2416C10.24 11.7361 11.11 12 12 12C13.1935 12 14.3381 11.5259 15.182 10.682C16.0259 9.83807 16.5 8.69348 16.5 7.5ZM9 7.5C9 6.90666 9.17595 6.32664 9.50559 5.83329C9.83524 5.33994 10.3038 4.95543 10.8519 4.72836C11.4001 4.5013 12.0033 4.44189 12.5853 4.55765C13.1672 4.6734 13.7018 4.95912 14.1213 5.37868C14.5409 5.79824 14.8266 6.33279 14.9424 6.91473C15.0581 7.49667 14.9987 8.09987 14.7716 8.64805C14.5446 9.19623 14.1601 9.66477 13.6667 9.99441C13.1734 10.3241 12.5933 10.5 12 10.5C11.2044 10.5 10.4413 10.1839 9.87868 9.62132C9.31607 9.05871 9 8.29565 9 7.5ZM4.5 18.6975C4.5 19.2942 4.73705 19.8665 5.15901 20.2885C5.58097 20.7104 6.15326 20.9475 6.75 20.9475H17.25C17.8467 20.9475 18.419 20.7104 18.841 20.2885C19.2629 19.8665 19.5 19.2942 19.5 18.6975C19.5 17.3051 18.9469 15.9698 17.9623 14.9852C16.9777 14.0006 15.6424 13.4475 14.25 13.4475H9.75C8.35761 13.4475 7.02226 14.0006 6.03769 14.9852C5.05312 15.9698 4.5 17.3051 4.5 18.6975ZM9.75 14.9475H14.25C14.7425 14.9475 15.2301 15.0445 15.6851 15.233C16.14 15.4214 16.5534 15.6976 16.9017 16.0459C17.2499 16.3941 17.5261 16.8075 17.7145 17.2624C17.903 17.7174 18 18.205 18 18.6975C18 18.8964 17.921 19.0872 17.7803 19.2278C17.6397 19.3685 17.4489 19.4475 17.25 19.4475H6.75C6.55109 19.4475 6.36032 19.3685 6.21967 19.2278C6.07902 19.0872 6 18.8964 6 18.6975C6 17.7029 6.39509 16.7491 7.09835 16.0459C7.80161 15.3426 8.75544 14.9475 9.75 14.9475Z" fill="#21334F"/>
</svg>
