<svg width="24" height="25" viewBox="0 0 24 25" fill="none" xmlns="http://www.w3.org/2000/svg">
<g clip-path="url(#clip0_38_226)">
<path d="M19 11.5H7.14L10.77 7.14003C10.9397 6.93581 11.0214 6.67253 10.997 6.40811C10.9726 6.14368 10.8442 5.89977 10.64 5.73003C10.4358 5.56029 10.1725 5.47863 9.90808 5.50301C9.64365 5.52739 9.39974 5.65581 9.23 5.86003L4.23 11.86C4.19636 11.9078 4.16628 11.9579 4.14 12.01C4.14 12.06 4.14 12.09 4.07 12.14C4.02467 12.2547 4.00094 12.3767 4 12.5C4.00094 12.6233 4.02467 12.7454 4.07 12.86C4.07 12.91 4.07 12.94 4.14 12.99C4.16628 13.0422 4.19636 13.0923 4.23 13.14L9.23 19.14C9.32402 19.2529 9.44176 19.3437 9.57485 19.4059C9.70793 19.4681 9.85309 19.5003 10 19.5C10.2337 19.5005 10.4601 19.4191 10.64 19.27C10.7413 19.1861 10.825 19.083 10.8863 18.9666C10.9477 18.8503 10.9855 18.723 10.9975 18.592C11.0096 18.461 10.9957 18.329 10.9567 18.2034C10.9176 18.0777 10.8542 17.9611 10.77 17.86L7.14 13.5H19C19.2652 13.5 19.5196 13.3947 19.7071 13.2071C19.8946 13.0196 20 12.7652 20 12.5C20 12.2348 19.8946 11.9805 19.7071 11.7929C19.5196 11.6054 19.2652 11.5 19 11.5Z" fill="black"/>
</g>
<defs>
<clipPath id="clip0_38_226">
<rect width="24" height="24" fill="white" transform="translate(0 0.5)"/>
</clipPath>
</defs>
</svg>
