<svg width="11" height="10" viewBox="0 0 11 10" fill="none" xmlns="http://www.w3.org/2000/svg">
<path d="M10.1666 4.33335H2.25996L4.67996 1.42669C4.79312 1.29054 4.84756 1.11502 4.83131 0.938739C4.81505 0.762454 4.72944 0.599847 4.59329 0.486688C4.45715 0.373529 4.28163 0.319087 4.10534 0.335341C3.92906 0.351594 3.76645 0.43721 3.65329 0.573354L0.319959 4.57335C0.297533 4.60517 0.277479 4.63859 0.259959 4.67335C0.259959 4.70669 0.259959 4.72669 0.213293 4.76002C0.183075 4.83646 0.167253 4.91783 0.166626 5.00002C0.167253 5.08221 0.183075 5.16358 0.213293 5.24002C0.213293 5.27335 0.213293 5.29335 0.259959 5.32669C0.277479 5.36145 0.297533 5.39487 0.319959 5.42669L3.65329 9.42669C3.71597 9.50194 3.79447 9.56246 3.88319 9.60394C3.97191 9.64542 4.06869 9.66685 4.16663 9.66669C4.32239 9.66699 4.47335 9.61274 4.59329 9.51336C4.6608 9.45739 4.7166 9.38865 4.7575 9.31109C4.7984 9.23352 4.8236 9.14865 4.83165 9.06134C4.8397 8.97402 4.83045 8.88597 4.80442 8.80223C4.77839 8.7185 4.73609 8.64072 4.67996 8.57335L2.25996 5.66669H10.1666C10.3434 5.66669 10.513 5.59645 10.638 5.47143C10.7631 5.3464 10.8333 5.17683 10.8333 5.00002C10.8333 4.82321 10.7631 4.65364 10.638 4.52862C10.513 4.40359 10.3434 4.33335 10.1666 4.33335Z" fill="#03435F"/>
</svg>
