<svg width="270" height="70" viewBox="0 0 270 70" fill="none" xmlns="http://www.w3.org/2000/svg">
<g clip-path="url(#clip0_6_42)">
<path d="M38.625 14.595L25.365 0L0.5 27.7H26.86L38.625 14.595Z" fill="white"/>
<path d="M13.755 42.3L1.98999 55.4001L15.25 70L40.115 42.3H13.755Z" fill="white"/>
<path d="M13.755 42.2999L25.945 28.7149L26.86 27.7H0.5L13.755 42.2999Z" fill="white"/>
<path d="M13.755 42.2999H40.115L26.86 27.7L25.9449 28.7149L13.755 42.2999Z" fill="white"/>
</g>
<path d="M61.7841 46.5H57.2841L65.4773 23.2273H70.6818L78.8864 46.5H74.3864L68.1705 28H67.9886L61.7841 46.5ZM61.9318 37.375H74.2045V40.7614H61.9318V37.375ZM81.8949 46.5V29.0455H86.0085V46.5H81.8949ZM83.9631 26.5682C83.3116 26.5682 82.7509 26.3523 82.2812 25.9205C81.8116 25.4811 81.5767 24.9545 81.5767 24.3409C81.5767 23.7197 81.8116 23.1932 82.2812 22.7614C82.7509 22.322 83.3116 22.1023 83.9631 22.1023C84.6222 22.1023 85.1828 22.322 85.6449 22.7614C86.1146 23.1932 86.3494 23.7197 86.3494 24.3409C86.3494 24.9545 86.1146 25.4811 85.6449 25.9205C85.1828 26.3523 84.6222 26.5682 83.9631 26.5682ZM90.2386 46.5V29.0455H94.2273V31.9545H94.4091C94.7273 30.947 95.2727 30.1705 96.0455 29.625C96.8258 29.072 97.7159 28.7955 98.7159 28.7955C98.9432 28.7955 99.197 28.8068 99.4773 28.8295C99.7652 28.8447 100.004 28.8712 100.193 28.9091V32.6932C100.019 32.6326 99.7424 32.5795 99.3636 32.5341C98.9924 32.4811 98.6326 32.4545 98.2841 32.4545C97.5341 32.4545 96.8598 32.6174 96.2614 32.9432C95.6705 33.2614 95.2045 33.7045 94.8636 34.2727C94.5227 34.8409 94.3523 35.4962 94.3523 36.2386V46.5H90.2386ZM112.58 29.0455V32.2273H102.545V29.0455H112.58ZM105.023 24.8636H109.136V41.25C109.136 41.803 109.22 42.2273 109.386 42.5227C109.561 42.8106 109.788 43.0076 110.068 43.1136C110.348 43.2197 110.659 43.2727 111 43.2727C111.258 43.2727 111.492 43.2538 111.705 43.2159C111.924 43.178 112.091 43.1439 112.205 43.1136L112.898 46.3295C112.678 46.4053 112.364 46.4886 111.955 46.5795C111.553 46.6705 111.061 46.7235 110.477 46.7386C109.447 46.7689 108.519 46.6136 107.693 46.2727C106.867 45.9242 106.212 45.3864 105.727 44.6591C105.25 43.9318 105.015 43.0227 105.023 41.9318V24.8636ZM116.02 46.5V29.0455H120.134V46.5H116.02ZM118.088 26.5682C117.437 26.5682 116.876 26.3523 116.406 25.9205C115.937 25.4811 115.702 24.9545 115.702 24.3409C115.702 23.7197 115.937 23.1932 116.406 22.7614C116.876 22.322 117.437 22.1023 118.088 22.1023C118.747 22.1023 119.308 22.322 119.77 22.7614C120.24 23.1932 120.474 23.7197 120.474 24.3409C120.474 24.9545 120.24 25.4811 119.77 25.9205C119.308 26.3523 118.747 26.5682 118.088 26.5682ZM124.364 46.5V29.0455H128.295V32.0114H128.5C128.864 31.0114 129.466 30.2311 130.307 29.6705C131.148 29.1023 132.152 28.8182 133.318 28.8182C134.5 28.8182 135.496 29.1061 136.307 29.6818C137.125 30.25 137.701 31.0265 138.034 32.0114H138.216C138.602 31.0417 139.254 30.2689 140.17 29.6932C141.095 29.1098 142.189 28.8182 143.455 28.8182C145.061 28.8182 146.371 29.3258 147.386 30.3409C148.402 31.3561 148.909 32.8371 148.909 34.7841V46.5H144.784V35.4205C144.784 34.3371 144.496 33.5455 143.92 33.0455C143.345 32.5379 142.64 32.2841 141.807 32.2841C140.814 32.2841 140.038 32.5947 139.477 33.2159C138.924 33.8295 138.648 34.6288 138.648 35.6136V46.5H134.614V35.25C134.614 34.3485 134.341 33.6288 133.795 33.0909C133.258 32.553 132.553 32.2841 131.682 32.2841C131.091 32.2841 130.553 32.4356 130.068 32.7386C129.583 33.0341 129.197 33.4545 128.909 34C128.621 34.5379 128.477 35.1667 128.477 35.8864V46.5H124.364ZM160.81 46.8409C159.06 46.8409 157.548 46.4773 156.276 45.75C155.01 45.0152 154.037 43.9773 153.355 42.6364C152.673 41.2879 152.332 39.7008 152.332 37.875C152.332 36.0795 152.673 34.5038 153.355 33.1477C154.045 31.7841 155.007 30.7235 156.241 29.9659C157.476 29.2008 158.927 28.8182 160.594 28.8182C161.67 28.8182 162.685 28.9924 163.639 29.3409C164.601 29.6818 165.45 30.2121 166.185 30.9318C166.927 31.6515 167.51 32.5682 167.935 33.6818C168.359 34.7879 168.571 36.1061 168.571 37.6364V38.8977H154.264V36.125H164.628C164.62 35.3371 164.45 34.6364 164.116 34.0227C163.783 33.4015 163.317 32.9129 162.719 32.5568C162.128 32.2008 161.438 32.0227 160.651 32.0227C159.81 32.0227 159.071 32.2273 158.435 32.6364C157.798 33.0379 157.302 33.5682 156.946 34.2273C156.598 34.8788 156.42 35.5947 156.412 36.375V38.7955C156.412 39.8106 156.598 40.6818 156.969 41.4091C157.34 42.1288 157.859 42.6818 158.526 43.0682C159.192 43.447 159.973 43.6364 160.866 43.6364C161.465 43.6364 162.007 43.553 162.491 43.3864C162.976 43.2121 163.397 42.9583 163.753 42.625C164.109 42.2917 164.378 41.8788 164.56 41.3864L168.401 41.8182C168.158 42.8333 167.696 43.7197 167.014 44.4773C166.34 45.2273 165.476 45.8106 164.423 46.2273C163.37 46.6364 162.166 46.8409 160.81 46.8409ZM172.006 46.5V43.4545L180.085 35.5341C180.858 34.7538 181.502 34.0606 182.017 33.4545C182.532 32.8485 182.919 32.2614 183.176 31.6932C183.434 31.125 183.562 30.5189 183.562 29.875C183.562 29.1402 183.396 28.5114 183.062 27.9886C182.729 27.4583 182.271 27.0492 181.688 26.7614C181.104 26.4735 180.441 26.3295 179.699 26.3295C178.934 26.3295 178.263 26.4886 177.688 26.8068C177.112 27.1174 176.665 27.5606 176.347 28.1364C176.036 28.7121 175.881 29.3977 175.881 30.1932H171.869C171.869 28.7159 172.206 27.4318 172.881 26.3409C173.555 25.25 174.483 24.4053 175.665 23.8068C176.854 23.2083 178.218 22.9091 179.756 22.9091C181.316 22.9091 182.688 23.2008 183.869 23.7841C185.051 24.3674 185.968 25.1667 186.619 26.1818C187.278 27.197 187.608 28.3561 187.608 29.6591C187.608 30.5303 187.441 31.3864 187.108 32.2273C186.775 33.0682 186.188 34 185.347 35.0227C184.513 36.0455 183.343 37.2841 181.835 38.7386L177.824 42.8182V42.9773H187.96V46.5H172.006ZM212.028 31.0795H207.778C207.657 30.3826 207.434 29.7652 207.108 29.2273C206.782 28.6818 206.377 28.2197 205.892 27.8409C205.407 27.4621 204.854 27.178 204.233 26.9886C203.619 26.7917 202.956 26.6932 202.244 26.6932C200.979 26.6932 199.858 27.0114 198.881 27.6477C197.903 28.2765 197.138 29.2008 196.585 30.4205C196.032 31.6326 195.756 33.1136 195.756 34.8636C195.756 36.6439 196.032 38.1439 196.585 39.3636C197.146 40.5758 197.911 41.4924 198.881 42.1136C199.858 42.7273 200.975 43.0341 202.233 43.0341C202.93 43.0341 203.581 42.9432 204.188 42.7614C204.801 42.572 205.35 42.2955 205.835 41.9318C206.328 41.5682 206.741 41.1212 207.074 40.5909C207.415 40.0606 207.65 39.4545 207.778 38.7727L212.028 38.7955C211.869 39.9015 211.525 40.9394 210.994 41.9091C210.472 42.8788 209.786 43.7348 208.938 44.4773C208.089 45.2121 207.097 45.7879 205.96 46.2045C204.824 46.6136 203.563 46.8182 202.176 46.8182C200.131 46.8182 198.305 46.3447 196.699 45.3977C195.093 44.4508 193.828 43.0833 192.903 41.2955C191.979 39.5076 191.517 37.3636 191.517 34.8636C191.517 32.3561 191.983 30.2121 192.915 28.4318C193.847 26.6439 195.116 25.2765 196.722 24.3295C198.328 23.3826 200.146 22.9091 202.176 22.9091C203.472 22.9091 204.676 23.0909 205.79 23.4545C206.903 23.8182 207.896 24.3523 208.767 25.0568C209.638 25.7538 210.354 26.6098 210.915 27.625C211.483 28.6326 211.854 29.7841 212.028 31.0795ZM220.73 46.8523C219.624 46.8523 218.628 46.6553 217.741 46.2614C216.863 45.8598 216.166 45.2689 215.651 44.4886C215.143 43.7083 214.889 42.7462 214.889 41.6023C214.889 40.6174 215.071 39.803 215.435 39.1591C215.798 38.5152 216.295 38 216.923 37.6136C217.552 37.2273 218.26 36.9356 219.048 36.7386C219.844 36.5341 220.666 36.3864 221.514 36.2955C222.537 36.1894 223.366 36.0947 224.003 36.0114C224.639 35.9205 225.101 35.7841 225.389 35.6023C225.685 35.4129 225.832 35.1212 225.832 34.7273V34.6591C225.832 33.803 225.579 33.1402 225.071 32.6705C224.563 32.2008 223.832 31.9659 222.878 31.9659C221.87 31.9659 221.071 32.1856 220.48 32.625C219.897 33.0644 219.503 33.5833 219.298 34.1818L215.457 33.6364C215.76 32.5758 216.26 31.6894 216.957 30.9773C217.654 30.2576 218.507 29.7197 219.514 29.3636C220.522 29 221.635 28.8182 222.855 28.8182C223.696 28.8182 224.533 28.9167 225.366 29.1136C226.2 29.3106 226.961 29.6364 227.651 30.0909C228.34 30.5379 228.893 31.1477 229.31 31.9205C229.734 32.6932 229.946 33.6591 229.946 34.8182V46.5H225.991V44.1023H225.855C225.605 44.5871 225.253 45.0417 224.798 45.4659C224.351 45.8826 223.787 46.2197 223.105 46.4773C222.431 46.7273 221.639 46.8523 220.73 46.8523ZM221.798 43.8295C222.624 43.8295 223.34 43.6667 223.946 43.3409C224.552 43.0076 225.018 42.5682 225.344 42.0227C225.677 41.4773 225.844 40.8826 225.844 40.2386V38.1818C225.715 38.2879 225.495 38.3864 225.185 38.4773C224.882 38.5682 224.541 38.6477 224.162 38.7159C223.783 38.7841 223.408 38.8447 223.037 38.8977C222.666 38.9508 222.344 38.9962 222.071 39.0341C221.457 39.1174 220.908 39.2538 220.423 39.4432C219.938 39.6326 219.556 39.8977 219.276 40.2386C218.995 40.572 218.855 41.0038 218.855 41.5341C218.855 42.2917 219.132 42.8636 219.685 43.25C220.238 43.6364 220.942 43.8295 221.798 43.8295ZM247.878 33.6591L244.128 34.0682C244.022 33.6894 243.836 33.3333 243.571 33C243.313 32.6667 242.965 32.3977 242.526 32.1932C242.086 31.9886 241.548 31.8864 240.912 31.8864C240.056 31.8864 239.336 32.072 238.753 32.4432C238.177 32.8144 237.893 33.2955 237.901 33.8864C237.893 34.3939 238.079 34.8068 238.457 35.125C238.844 35.4432 239.48 35.7045 240.366 35.9091L243.344 36.5455C244.995 36.9015 246.223 37.4659 247.026 38.2386C247.836 39.0114 248.245 40.0227 248.253 41.2727C248.245 42.3712 247.923 43.3409 247.287 44.1818C246.658 45.0152 245.783 45.6667 244.662 46.1364C243.541 46.6061 242.253 46.8409 240.798 46.8409C238.662 46.8409 236.942 46.3939 235.639 45.5C234.336 44.5985 233.56 43.3447 233.31 41.7386L237.321 41.3523C237.503 42.1402 237.889 42.7348 238.48 43.1364C239.071 43.5379 239.84 43.7386 240.787 43.7386C241.764 43.7386 242.548 43.5379 243.139 43.1364C243.738 42.7348 244.037 42.2386 244.037 41.6477C244.037 41.1477 243.844 40.7348 243.457 40.4091C243.079 40.0833 242.488 39.8333 241.685 39.6591L238.707 39.0341C237.033 38.6856 235.795 38.0985 234.991 37.2727C234.188 36.4394 233.791 35.3864 233.798 34.1136C233.791 33.0379 234.082 32.1061 234.673 31.3182C235.272 30.5227 236.101 29.9091 237.162 29.4773C238.23 29.0379 239.461 28.8182 240.855 28.8182C242.901 28.8182 244.51 29.2538 245.685 30.125C246.866 30.9962 247.598 32.1742 247.878 33.6591ZM255.759 36.2727V46.5H251.645V23.2273H255.668V32.0114H255.872C256.281 31.0265 256.914 30.25 257.77 29.6818C258.634 29.1061 259.732 28.8182 261.065 28.8182C262.277 28.8182 263.334 29.072 264.236 29.5795C265.137 30.0871 265.834 30.8295 266.327 31.8068C266.827 32.7841 267.077 33.9773 267.077 35.3864V46.5H262.963V36.0227C262.963 34.8485 262.66 33.9356 262.054 33.2841C261.455 32.625 260.615 32.2955 259.531 32.2955C258.804 32.2955 258.152 32.4545 257.577 32.7727C257.009 33.0833 256.562 33.5341 256.236 34.125C255.918 34.7159 255.759 35.4318 255.759 36.2727Z" fill="white"/>
<defs>
<clipPath id="clip0_6_42">
<rect width="40" height="70" fill="white" transform="translate(0.5)"/>
</clipPath>
</defs>
</svg>
