<svg width="269" height="70" viewBox="0 0 269 70" fill="none" xmlns="http://www.w3.org/2000/svg">
<g clip-path="url(#clip0_3_402)">
<path d="M38.125 14.595L24.865 0L0 27.7H26.36L38.125 14.595Z" fill="url(#paint0_linear_3_402)"/>
<path d="M13.255 42.3L1.48999 55.4L14.75 70L39.615 42.3H13.255Z" fill="url(#paint1_linear_3_402)"/>
<path d="M13.255 42.3L25.445 28.715L26.36 27.7H0L13.255 42.3Z" fill="url(#paint2_linear_3_402)"/>
<path d="M13.255 42.3H39.615L26.36 27.7L25.445 28.715L13.255 42.3Z" fill="url(#paint3_linear_3_402)"/>
</g>
<path d="M61.2841 46.5H56.7841L64.9773 23.2273H70.1818L78.3864 46.5H73.8864L67.6705 28H67.4886L61.2841 46.5ZM61.4318 37.375H73.7045V40.7614H61.4318V37.375ZM81.3949 46.5V29.0455H85.5085V46.5H81.3949ZM83.4631 26.5682C82.8116 26.5682 82.2509 26.3523 81.7812 25.9205C81.3116 25.4811 81.0767 24.9545 81.0767 24.3409C81.0767 23.7197 81.3116 23.1932 81.7812 22.7614C82.2509 22.322 82.8116 22.1023 83.4631 22.1023C84.1222 22.1023 84.6828 22.322 85.1449 22.7614C85.6146 23.1932 85.8494 23.7197 85.8494 24.3409C85.8494 24.9545 85.6146 25.4811 85.1449 25.9205C84.6828 26.3523 84.1222 26.5682 83.4631 26.5682ZM89.7386 46.5V29.0455H93.7273V31.9545H93.9091C94.2273 30.947 94.7727 30.1705 95.5455 29.625C96.3258 29.072 97.2159 28.7955 98.2159 28.7955C98.4432 28.7955 98.697 28.8068 98.9773 28.8295C99.2652 28.8447 99.5038 28.8712 99.6932 28.9091V32.6932C99.5189 32.6326 99.2424 32.5795 98.8636 32.5341C98.4924 32.4811 98.1326 32.4545 97.7841 32.4545C97.0341 32.4545 96.3598 32.6174 95.7614 32.9432C95.1705 33.2614 94.7045 33.7045 94.3636 34.2727C94.0227 34.8409 93.8523 35.4962 93.8523 36.2386V46.5H89.7386ZM112.08 29.0455V32.2273H102.045V29.0455H112.08ZM104.523 24.8636H108.636V41.25C108.636 41.803 108.72 42.2273 108.886 42.5227C109.061 42.8106 109.288 43.0076 109.568 43.1136C109.848 43.2197 110.159 43.2727 110.5 43.2727C110.758 43.2727 110.992 43.2538 111.205 43.2159C111.424 43.178 111.591 43.1439 111.705 43.1136L112.398 46.3295C112.178 46.4053 111.864 46.4886 111.455 46.5795C111.053 46.6705 110.561 46.7235 109.977 46.7386C108.947 46.7689 108.019 46.6136 107.193 46.2727C106.367 45.9242 105.712 45.3864 105.227 44.6591C104.75 43.9318 104.515 43.0227 104.523 41.9318V24.8636ZM115.52 46.5V29.0455H119.634V46.5H115.52ZM117.588 26.5682C116.937 26.5682 116.376 26.3523 115.906 25.9205C115.437 25.4811 115.202 24.9545 115.202 24.3409C115.202 23.7197 115.437 23.1932 115.906 22.7614C116.376 22.322 116.937 22.1023 117.588 22.1023C118.247 22.1023 118.808 22.322 119.27 22.7614C119.74 23.1932 119.974 23.7197 119.974 24.3409C119.974 24.9545 119.74 25.4811 119.27 25.9205C118.808 26.3523 118.247 26.5682 117.588 26.5682ZM123.864 46.5V29.0455H127.795V32.0114H128C128.364 31.0114 128.966 30.2311 129.807 29.6705C130.648 29.1023 131.652 28.8182 132.818 28.8182C134 28.8182 134.996 29.1061 135.807 29.6818C136.625 30.25 137.201 31.0265 137.534 32.0114H137.716C138.102 31.0417 138.754 30.2689 139.67 29.6932C140.595 29.1098 141.689 28.8182 142.955 28.8182C144.561 28.8182 145.871 29.3258 146.886 30.3409C147.902 31.3561 148.409 32.8371 148.409 34.7841V46.5H144.284V35.4205C144.284 34.3371 143.996 33.5455 143.42 33.0455C142.845 32.5379 142.14 32.2841 141.307 32.2841C140.314 32.2841 139.538 32.5947 138.977 33.2159C138.424 33.8295 138.148 34.6288 138.148 35.6136V46.5H134.114V35.25C134.114 34.3485 133.841 33.6288 133.295 33.0909C132.758 32.553 132.053 32.2841 131.182 32.2841C130.591 32.2841 130.053 32.4356 129.568 32.7386C129.083 33.0341 128.697 33.4545 128.409 34C128.121 34.5379 127.977 35.1667 127.977 35.8864V46.5H123.864ZM160.31 46.8409C158.56 46.8409 157.048 46.4773 155.776 45.75C154.51 45.0152 153.537 43.9773 152.855 42.6364C152.173 41.2879 151.832 39.7008 151.832 37.875C151.832 36.0795 152.173 34.5038 152.855 33.1477C153.545 31.7841 154.507 30.7235 155.741 29.9659C156.976 29.2008 158.427 28.8182 160.094 28.8182C161.17 28.8182 162.185 28.9924 163.139 29.3409C164.101 29.6818 164.95 30.2121 165.685 30.9318C166.427 31.6515 167.01 32.5682 167.435 33.6818C167.859 34.7879 168.071 36.1061 168.071 37.6364V38.8977H153.764V36.125H164.128C164.12 35.3371 163.95 34.6364 163.616 34.0227C163.283 33.4015 162.817 32.9129 162.219 32.5568C161.628 32.2008 160.938 32.0227 160.151 32.0227C159.31 32.0227 158.571 32.2273 157.935 32.6364C157.298 33.0379 156.802 33.5682 156.446 34.2273C156.098 34.8788 155.92 35.5947 155.912 36.375V38.7955C155.912 39.8106 156.098 40.6818 156.469 41.4091C156.84 42.1288 157.359 42.6818 158.026 43.0682C158.692 43.447 159.473 43.6364 160.366 43.6364C160.965 43.6364 161.507 43.553 161.991 43.3864C162.476 43.2121 162.897 42.9583 163.253 42.625C163.609 42.2917 163.878 41.8788 164.06 41.3864L167.901 41.8182C167.658 42.8333 167.196 43.7197 166.514 44.4773C165.84 45.2273 164.976 45.8106 163.923 46.2273C162.87 46.6364 161.666 46.8409 160.31 46.8409Z" fill="#DE3D6D"/>
<path d="M171.506 46.5V43.4545L179.585 35.5341C180.358 34.7538 181.002 34.0606 181.517 33.4545C182.032 32.8485 182.419 32.2614 182.676 31.6932C182.934 31.125 183.062 30.5189 183.062 29.875C183.062 29.1402 182.896 28.5114 182.562 27.9886C182.229 27.4583 181.771 27.0492 181.188 26.7614C180.604 26.4735 179.941 26.3295 179.199 26.3295C178.434 26.3295 177.763 26.4886 177.188 26.8068C176.612 27.1174 176.165 27.5606 175.847 28.1364C175.536 28.7121 175.381 29.3977 175.381 30.1932H171.369C171.369 28.7159 171.706 27.4318 172.381 26.3409C173.055 25.25 173.983 24.4053 175.165 23.8068C176.354 23.2083 177.718 22.9091 179.256 22.9091C180.816 22.9091 182.188 23.2008 183.369 23.7841C184.551 24.3674 185.468 25.1667 186.119 26.1818C186.778 27.197 187.108 28.3561 187.108 29.6591C187.108 30.5303 186.941 31.3864 186.608 32.2273C186.275 33.0682 185.688 34 184.847 35.0227C184.013 36.0455 182.843 37.2841 181.335 38.7386L177.324 42.8182V42.9773H187.46V46.5H171.506ZM211.528 31.0795H207.278C207.157 30.3826 206.934 29.7652 206.608 29.2273C206.282 28.6818 205.877 28.2197 205.392 27.8409C204.907 27.4621 204.354 27.178 203.733 26.9886C203.119 26.7917 202.456 26.6932 201.744 26.6932C200.479 26.6932 199.358 27.0114 198.381 27.6477C197.403 28.2765 196.638 29.2008 196.085 30.4205C195.532 31.6326 195.256 33.1136 195.256 34.8636C195.256 36.6439 195.532 38.1439 196.085 39.3636C196.646 40.5758 197.411 41.4924 198.381 42.1136C199.358 42.7273 200.475 43.0341 201.733 43.0341C202.43 43.0341 203.081 42.9432 203.688 42.7614C204.301 42.572 204.85 42.2955 205.335 41.9318C205.828 41.5682 206.241 41.1212 206.574 40.5909C206.915 40.0606 207.15 39.4545 207.278 38.7727L211.528 38.7955C211.369 39.9015 211.025 40.9394 210.494 41.9091C209.972 42.8788 209.286 43.7348 208.438 44.4773C207.589 45.2121 206.597 45.7879 205.46 46.2045C204.324 46.6136 203.063 46.8182 201.676 46.8182C199.631 46.8182 197.805 46.3447 196.199 45.3977C194.593 44.4508 193.328 43.0833 192.403 41.2955C191.479 39.5076 191.017 37.3636 191.017 34.8636C191.017 32.3561 191.483 30.2121 192.415 28.4318C193.347 26.6439 194.616 25.2765 196.222 24.3295C197.828 23.3826 199.646 22.9091 201.676 22.9091C202.972 22.9091 204.176 23.0909 205.29 23.4545C206.403 23.8182 207.396 24.3523 208.267 25.0568C209.138 25.7538 209.854 26.6098 210.415 27.625C210.983 28.6326 211.354 29.7841 211.528 31.0795ZM220.23 46.8523C219.124 46.8523 218.128 46.6553 217.241 46.2614C216.363 45.8598 215.666 45.2689 215.151 44.4886C214.643 43.7083 214.389 42.7462 214.389 41.6023C214.389 40.6174 214.571 39.803 214.935 39.1591C215.298 38.5152 215.795 38 216.423 37.6136C217.052 37.2273 217.76 36.9356 218.548 36.7386C219.344 36.5341 220.166 36.3864 221.014 36.2955C222.037 36.1894 222.866 36.0947 223.503 36.0114C224.139 35.9205 224.601 35.7841 224.889 35.6023C225.185 35.4129 225.332 35.1212 225.332 34.7273V34.6591C225.332 33.803 225.079 33.1402 224.571 32.6705C224.063 32.2008 223.332 31.9659 222.378 31.9659C221.37 31.9659 220.571 32.1856 219.98 32.625C219.397 33.0644 219.003 33.5833 218.798 34.1818L214.957 33.6364C215.26 32.5758 215.76 31.6894 216.457 30.9773C217.154 30.2576 218.007 29.7197 219.014 29.3636C220.022 29 221.135 28.8182 222.355 28.8182C223.196 28.8182 224.033 28.9167 224.866 29.1136C225.7 29.3106 226.461 29.6364 227.151 30.0909C227.84 30.5379 228.393 31.1477 228.81 31.9205C229.234 32.6932 229.446 33.6591 229.446 34.8182V46.5H225.491V44.1023H225.355C225.105 44.5871 224.753 45.0417 224.298 45.4659C223.851 45.8826 223.287 46.2197 222.605 46.4773C221.931 46.7273 221.139 46.8523 220.23 46.8523ZM221.298 43.8295C222.124 43.8295 222.84 43.6667 223.446 43.3409C224.052 43.0076 224.518 42.5682 224.844 42.0227C225.177 41.4773 225.344 40.8826 225.344 40.2386V38.1818C225.215 38.2879 224.995 38.3864 224.685 38.4773C224.382 38.5682 224.041 38.6477 223.662 38.7159C223.283 38.7841 222.908 38.8447 222.537 38.8977C222.166 38.9508 221.844 38.9962 221.571 39.0341C220.957 39.1174 220.408 39.2538 219.923 39.4432C219.438 39.6326 219.056 39.8977 218.776 40.2386C218.495 40.572 218.355 41.0038 218.355 41.5341C218.355 42.2917 218.632 42.8636 219.185 43.25C219.738 43.6364 220.442 43.8295 221.298 43.8295ZM247.378 33.6591L243.628 34.0682C243.522 33.6894 243.336 33.3333 243.071 33C242.813 32.6667 242.465 32.3977 242.026 32.1932C241.586 31.9886 241.048 31.8864 240.412 31.8864C239.556 31.8864 238.836 32.072 238.253 32.4432C237.677 32.8144 237.393 33.2955 237.401 33.8864C237.393 34.3939 237.579 34.8068 237.957 35.125C238.344 35.4432 238.98 35.7045 239.866 35.9091L242.844 36.5455C244.495 36.9015 245.723 37.4659 246.526 38.2386C247.336 39.0114 247.745 40.0227 247.753 41.2727C247.745 42.3712 247.423 43.3409 246.787 44.1818C246.158 45.0152 245.283 45.6667 244.162 46.1364C243.041 46.6061 241.753 46.8409 240.298 46.8409C238.162 46.8409 236.442 46.3939 235.139 45.5C233.836 44.5985 233.06 43.3447 232.81 41.7386L236.821 41.3523C237.003 42.1402 237.389 42.7348 237.98 43.1364C238.571 43.5379 239.34 43.7386 240.287 43.7386C241.264 43.7386 242.048 43.5379 242.639 43.1364C243.238 42.7348 243.537 42.2386 243.537 41.6477C243.537 41.1477 243.344 40.7348 242.957 40.4091C242.579 40.0833 241.988 39.8333 241.185 39.6591L238.207 39.0341C236.533 38.6856 235.295 38.0985 234.491 37.2727C233.688 36.4394 233.291 35.3864 233.298 34.1136C233.291 33.0379 233.582 32.1061 234.173 31.3182C234.772 30.5227 235.601 29.9091 236.662 29.4773C237.73 29.0379 238.961 28.8182 240.355 28.8182C242.401 28.8182 244.01 29.2538 245.185 30.125C246.366 30.9962 247.098 32.1742 247.378 33.6591ZM255.259 36.2727V46.5H251.145V23.2273H255.168V32.0114H255.372C255.781 31.0265 256.414 30.25 257.27 29.6818C258.134 29.1061 259.232 28.8182 260.565 28.8182C261.777 28.8182 262.834 29.072 263.736 29.5795C264.637 30.0871 265.334 30.8295 265.827 31.8068C266.327 32.7841 266.577 33.9773 266.577 35.3864V46.5H262.463V36.0227C262.463 34.8485 262.16 33.9356 261.554 33.2841C260.955 32.625 260.115 32.2955 259.031 32.2955C258.304 32.2955 257.652 32.4545 257.077 32.7727C256.509 33.0833 256.062 33.5341 255.736 34.125C255.418 34.7159 255.259 35.4318 255.259 36.2727Z" fill="#F5844C"/>
<defs>
<linearGradient id="paint0_linear_3_402" x1="31.93" y1="7.945" x2="4.89998" y2="33.215" gradientUnits="userSpaceOnUse">
<stop stop-color="#FFE770"/>
<stop offset="1" stop-color="#FFAA4F"/>
</linearGradient>
<linearGradient id="paint1_linear_3_402" x1="7.47" y1="62.175" x2="34.71" y2="37.045" gradientUnits="userSpaceOnUse">
<stop stop-color="#F55684"/>
<stop offset="1" stop-color="#CF2D5D"/>
</linearGradient>
<linearGradient id="paint2_linear_3_402" x1="6.63" y1="34.995" x2="21.5599" y2="21.83" gradientUnits="userSpaceOnUse">
<stop stop-color="#F0764A"/>
<stop offset="1" stop-color="#FFAA4F"/>
</linearGradient>
<linearGradient id="paint3_linear_3_402" x1="32.975" y1="35.01" x2="18.755" y2="47.935" gradientUnits="userSpaceOnUse">
<stop stop-color="#911C4B"/>
<stop offset="1" stop-color="#CF2D5D"/>
</linearGradient>
<clipPath id="clip0_3_402">
<rect width="40" height="70" fill="white"/>
</clipPath>
</defs>
</svg>